<?xml version="1.0" encoding="utf-8"?>
<!-- Uploaded to: SVG Repo, www.svgrepo.com, Generator: SVG Repo Mixer Tools -->
<svg version="1.1" id="Uploaded to svgrepo.com" xmlns="http://www.w3.org/2000/svg" xmlns:xlink="http://www.w3.org/1999/xlink" 
	 width="800px" height="800px" viewBox="0 0 32 32" xml:space="preserve">
<style type="text/css">
	.hatch_een{fill:#265AA5;}
	.hatch_twee{fill:#FFC5BB;}
</style>
<g>
	<path class="hatch_twee" d="M13.091,5.563l4.361-4.361c0.378,0.079,0.756,0.176,1.116,0.298l-3.522,3.522
		C14.349,5.08,13.69,5.27,13.091,5.563z M13.43,1.224L6.222,8.43c-0.118,0.527-0.186,1.074-0.213,1.63l9.048-9.049
		C14.502,1.037,13.957,1.106,13.43,1.224z M18.296,5.772l2.883-2.883c-0.272-0.203-0.552-0.395-0.845-0.569l-3.001,3.001
		C17.671,5.441,17.993,5.592,18.296,5.772z M21,10.5c0,0.204-0.013,0.405-0.035,0.603l3.565-3.565
		c-0.114-0.347-0.249-0.686-0.4-1.014l-3.193,3.193C20.974,9.973,21,10.233,21,10.5z M10.563,8.091l-4.291,4.292
		c0.086,0.35,0.189,0.717,0.311,1.102l3.44-3.439C10.08,9.349,10.27,8.69,10.563,8.091z M20.279,7.789l2.891-2.891
		c-0.198-0.271-0.409-0.531-0.634-0.78l-2.838,2.838C19.917,7.214,20.111,7.493,20.279,7.789z M13.103,26.965l9.938-9.938
		c0.362-0.824,0.689-1.624,0.969-2.383L12.584,26.066L13.103,26.965z M24.965,9.689L11.164,23.49
		c0.167,0.31,0.334,0.615,0.499,0.915l13.298-13.298C24.984,10.894,25,10.689,25,10.5C25,10.228,24.988,9.955,24.965,9.689z
		 M10.321,12.333l-3.049,3.049c0.13,0.329,0.261,0.67,0.405,1.009l3.096-3.096C10.592,12.993,10.441,12.671,10.321,12.333z
		 M14.581,29.487l4.352-4.352c0.541-0.97,1.106-2.011,1.665-3.079L14.054,28.6C14.245,28.924,14.422,29.22,14.581,29.487z
		 M11.955,14.699l-3.477,3.477c0.148,0.319,0.299,0.639,0.454,0.96l3.857-3.857C12.493,15.111,12.214,14.917,11.955,14.699z
		 M15.5,16c-0.267,0-0.527-0.026-0.783-0.062l-4.929,4.929c0.159,0.313,0.319,0.624,0.48,0.934l5.835-5.835
		C15.905,15.987,15.704,16,15.5,16z"/>
	<path class="hatch_een" d="M20,10.5c0,2.458-2.015,4.5-4.5,4.5S11,12.985,11,10.5S13.021,6,15.5,6S20,8.042,20,10.5z M10,10.5
		c0,3.033,2.467,5.5,5.5,5.5s5.5-2.467,5.5-5.5S18.542,5,15.5,5S10,7.467,10,10.5z M5,10.5c0,5.47,9.257,20.396,9.651,21.029
		C14.834,31.822,15.155,32,15.5,32s0.666-0.178,0.849-0.471C16.743,30.896,26,15.97,26,10.5C26,4.71,21.312,0,15.5,0
		C9.687,0,5,4.71,5,10.5z M25,10.5c0,5.229-9.5,20.5-9.5,20.5S6,15.747,6,10.5S10.25,1,15.5,1S25,5.271,25,10.5z"/>
</g>
</svg>