<?xml version="1.0" standalone="no"?>
<!DOCTYPE svg PUBLIC "-//W3C//DTD SVG 20010904//EN"
 "http://www.w3.org/TR/2001/REC-SVG-20010904/DTD/svg10.dtd">
<svg version="1.0" xmlns="http://www.w3.org/2000/svg"
 width="64.000000pt" height="64.000000pt" viewBox="0 0 64.000000 64.000000"
 preserveAspectRatio="xMidYMid meet">

<g transform="translate(0.000000,64.000000) scale(0.100000,-0.100000)"
fill="#000000" stroke="none">
<path d="M262 566 c-49 -17 -98 -70 -112 -121 -11 -38 -10 -52 5 -97 25 -78
145 -288 165 -288 19 0 139 208 165 284 13 41 14 58 5 97 -18 75 -95 137 -170
137 -14 0 -40 -5 -58 -12z m132 -45 c69 -46 83 -118 41 -208 -31 -67 -105
-193 -114 -193 -9 0 -85 125 -115 190 -43 93 -29 165 40 211 38 25 110 25 148
0z"/>
<path d="M273 494 c-39 -19 -67 -74 -58 -114 8 -36 48 -77 85 -85 43 -9 94 17
113 58 21 43 21 51 1 92 -15 32 -65 65 -96 65 -7 0 -27 -8 -45 -16z m97 -44
c11 -11 20 -33 20 -50 0 -17 -9 -39 -20 -50 -43 -43 -120 -11 -120 50 0 38 32
70 70 70 17 0 39 -9 50 -20z"/>
<path d="M298 426 c-22 -22 -22 -30 -2 -50 20 -20 28 -20 50 2 17 16 17 17 -4
20 -12 2 -22 12 -24 24 -3 21 -4 21 -20 4z"/>
</g>
</svg>
